Coordinates
version=1
nRows=4
nColumns=63
inDegrees=yes

Units are S.I. units (second, meters, Newtons, ...)
If the header above contains a line with 'inDegrees', this indicates whether rotational values are in degrees (yes) or radians (no).

endheader
time	pelvis_tilt	pelvis_list	pelvis_rotation	pelvis_tx	pelvis_ty	pelvis_tz	hip_flexion_r	hip_adduction_r	hip_rotation_r	knee_angle_r	knee_angle_r_beta	ankle_angle_r	subtalar_angle_r	mtp_angle_r	hip_flexion_l	hip_adduction_l	hip_rotation_l	knee_angle_l	knee_angle_l_beta	ankle_angle_l	subtalar_angle_l	mtp_angle_l	L5_S1_Flex_Ext	L5_S1_Lat_Bending	L5_S1_axial_rotation	L4_L5_Flex_Ext	L4_L5_Lat_Bending	L4_L5_axial_rotation	L3_L4_Flex_Ext	L3_L4_Lat_Bending	L3_L4_axial_rotation	L2_L3_Flex_Ext	L2_L3_Lat_Bending	L2_L3_axial_rotation	L1_L2_Flex_Ext	L1_L2_Lat_Bending	L1_L2_axial_rotation	L1_T12_Flex_Ext	L1_T12_Lat_Bending	L1_T12_axial_rotation	Abs_r3	Abs_r2	Abs_r1	Abs_t1	Abs_t2	neck_flexion	neck_bending	neck_rotation	arm_flex_r	arm_add_r	arm_rot_r	elbow_flex_r	pro_sup_r	wrist_flex_r	wrist_dev_r	arm_flex_l	arm_add_l	arm_rot_l	elbow_flex_l	pro_sup_l	wrist_flex_l	wrist_dev_l
      3.30508475	      5.01660424	     -0.49053970	     89.50399849	     -0.08690082	      0.78509064	      0.63971386	     -5.03928608	      3.35756839	     12.71029441	      0.57234847	      0.00998937	     20.87052149	     -8.95990321	      0.00000000	     -5.37857545	     -3.82152615	      7.24669071	      0.48809781	      0.00851891	     23.36546892	    -13.58356398	      0.00000000	     -0.26374248	      0.59556584	      0.67437058	     -0.48979615	      0.79210257	      0.71651874	     -0.43330252	      1.44805878	      0.71651874	     -0.30143128	      1.44805878	      0.59007425	     -0.24491126	      1.21447786	      0.54792609	     -0.15070245	      0.92253149	      0.50577793	     -1.88388614	      6.73715989	      3.75064684	      0.00000000	      0.00000000	     23.60560496	     -7.09857006	      1.26056452	      6.82645815	    -10.94247554	    124.58045119	      5.74793066	      2.04075467	      3.62441995	     -3.85797232	     14.50072201	     -4.05271156	    160.53761575	     12.41666076	      3.86078561	     -5.57155080	     -5.96078165
      3.32203390	      5.09622858	     -0.57933180	     89.80202524	     -0.08814328	      0.78506302	      0.64001613	     -4.89721587	      3.38945363	     11.49465503	      0.58267109	      0.01016953	     21.19694991	     -7.42879976	      0.00000000	     -5.22943668	     -3.88398416	      8.17889104	      0.49548535	      0.00864785	     23.00306840	    -14.44634263	      0.00000000	     -0.25657471	      0.62427643	      0.59287696	     -0.47648489	      0.83028766	      0.62993177	     -0.42152659	      1.51786572	      0.62993177	     -0.29323923	      1.51786572	      0.51876734	     -0.23825527	      1.27302451	      0.48171253	     -0.14660679	      0.96700420	      0.44465772	     -1.83268748	      7.06193989	      3.29740381	      0.00000000	      0.00000000	     23.56525340	     -6.01683291	      3.58259297	      7.03019253	    -11.07020788	    126.94412789	      5.45673536	      2.06419642	      3.69257095	     -3.89184223	     14.57118336	     -3.91406962	    159.50906311	     12.32353634	      5.18257420	     -6.27560363	     -6.25181605
      3.33898305	      5.25965460	     -0.68258630	     89.73400836	     -0.08887095	      0.78503923	      0.64035698	     -4.72546754	      3.50773142	     11.42609768	      0.60747082	      0.01060237	     21.05073930	     -7.29718887	      0.00000000	     -5.13531991	     -4.01927467	      8.28620984	      0.49170387	      0.00858185	     22.93507953	    -14.48731291	      0.00000000	     -0.24986852	      0.65758472	      0.65098289	     -0.46403083	      0.87458768	      0.69166932	     -0.41050899	      1.59885149	      0.69166932	     -0.28557473	      1.59885149	      0.56961003	     -0.23202791	      1.34094676	      0.52892360	     -0.14277487	      1.01859873	      0.48823717	     -1.78478587	      7.43872988	      3.62057153	      0.00000000	      0.00000000	     23.59672150	     -5.72589863	      4.75175788	      7.25484846	    -11.39196932	    127.95929935	      5.78465376	      2.56026768	      3.29868472	     -3.66302711	     14.85850238	     -3.56724313	    160.71337190	     12.15389498	      6.46081668	     -6.79594686	     -6.78580914
      3.35593220	      5.32578376	     -0.77729598	     89.85451281	     -0.09006453	      0.78501813	      0.64025820	     -4.60976898	      3.50119033	     10.73515373	      0.65426425	      0.01141907	     21.25712129	     -6.33973379	      0.00000000	     -5.02339213	     -4.02552292	      8.60820655	      0.51288091	      0.00895146	     22.79500556	    -14.87029850	      0.00000000	     -0.24382282	      0.68598771	      0.65940037	     -0.45280336	      0.91236365	      0.70061289	     -0.40057651	      1.66791051	      0.70061289	     -0.27866510	      1.66791051	      0.57697532	     -0.22641387	      1.39886613	      0.53576280	     -0.13932036	      1.06259496	      0.49455027	     -1.74160201	      7.76003015	      3.66738701	      0.00000000	      0.00000000	     23.60455064	     -4.58903766	      7.03107262	      7.39844462	    -11.45639093	    133.62740811	      5.09876591	      2.19881085	      3.27933410	     -3.98873312	     14.80009318	     -2.63076662	    168.77655566	     10.71952437	      5.51705991	     -7.15824675	     -7.07146924
